<svg id="Capa_1" enable-background="new 0 0 512 512" height="512" viewBox="0 0 512 512" width="512" xmlns="http://www.w3.org/2000/svg"><g><path d="m441.779 302.643c0 91.556-94.222 165.777-185.779 165.777s-185.778-74.221-185.778-165.777c0-75.209 70.084-154.146 138.717-174.429 14.919-4.409 82.334-3.916 98.538 1.373 66.355 21.655 134.302 99.469 134.302 173.056z" fill="#f2ede5"/><g><path d="m316.87 15.266c-1.499 0-1.691 0-5.125-3.359-4.553-4.453-12.174-11.907-26.089-11.907s-21.535 7.454-26.088 11.907c-3.434 3.359-3.626 3.359-5.125 3.359-1.497 0-1.69 0-5.123-3.358-4.553-4.454-12.173-11.908-26.088-11.908s-21.535 7.454-26.088 11.908c-3.433 3.358-3.625 3.358-5.123 3.358h-23.357l35.022 78.268 6.555 7.885h91.914l3.554-7.884 35.022-78.268h-23.861z" fill="#f2ede5"/></g><g><path d="m441.779 302.643c0-73.586-67.946-151.401-134.302-173.056-8.327-2.718-30.176-4.168-51.477-4.339v343.172c91.556 0 185.779-74.221 185.779-165.777z" fill="#e7e3db"/></g><g><path d="m243.861 264.295c0 3.694 5.043 5.382 12.14 6.924v-13.429c-9.156.258-12.14 3.108-12.14 6.505z" fill="none"/><path d="m266.721 307.345c0-3.606-4.382-5.413-10.721-6.955v12.528c7.821-.371 10.721-2.369 10.721-5.573z" fill="none"/><path d="m316.87 15.266c-1.499 0-1.691 0-5.125-3.359-4.553-4.453-12.174-11.907-26.089-11.907s-21.535 7.454-26.088 11.907c-1.97 1.927-2.872 2.746-3.567 3.096v86.415h46.155l3.554-7.884 35.022-78.268z" fill="#e7e3db"/></g><path d="m203.686 93.533h102.024v35.975h-102.024z" fill="#fd8d34"/><g><path d="m256 93.533h49.71v35.975h-49.71z" fill="#fd6e2e"/></g><g><g><g><path d="m266.721 338.666v16.477h-20.931v-15.735c-14.845-.891-29.244-4.899-38.15-10.391l11.281-25.533c9.798 5.79 22.861 9.5 34.291 9.5 9.946 0 13.509-2.078 13.509-5.641 0-13.063-57.448-2.524-57.448-41.268 0-16.774 12.172-30.876 36.517-34.291v-16.18h20.931v15.883c10.985 1.039 21.673 3.86 30.134 8.61l-10.539 25.384c-10.243-5.196-19.892-7.719-28.947-7.719-10.243 0-13.508 2.969-13.508 6.531 0 12.47 57.448 2.078 57.448 40.377 0 16.035-11.579 29.988-34.588 33.996z" fill="#fcbe2c"/></g></g></g><path d="m257.369 257.764c9.055 0 18.704 2.523 28.947 7.719l10.539-25.384c-8.461-4.75-19.149-7.571-30.134-8.61v-15.883h-10.721v42.184c.447-.013.893-.026 1.369-.026z" fill="#fd9e28"/><path d="m79.5 323.5 104.125 143.5-20.667 45h-113.958l24-53-73-114.667v-166.211c0-14.979 12.143-27.122 27.122-27.122 13.215 0 24.506 9.524 26.734 22.55z" fill="#ffdfcf"/><path d="m186.874 460.435-11.208 23.898-92.423-150.866c-8.744-15.146-3.555-34.513 11.591-43.257 15.146-8.744 34.513-3.555 43.257 11.591l45.163 78.225c14.214 24.618 15.564 54.612 3.62 80.409z" fill="#ffcebf"/><g><path d="m484.878 151c-.857 0-1.706.044-2.545.123v.03c-12.093 1.133-22.106 10.219-24.189 22.397l-25.644 149.95-96.175 160.817 12.717 27.683h113.958l-24-53 73-114.667v-166.211c0-14.979-12.143-27.122-27.122-27.122z" fill="#efb4af"/><path d="m325.126 460.435 11.208 23.898 92.424-150.867c8.744-15.146 3.555-34.513-11.591-43.257-15.146-8.744-34.513-3.555-43.257 11.591l-45.163 78.225c-14.215 24.619-15.565 54.613-3.621 80.41z" fill="#ffcebf"/></g><path d="m266.721 307.345c0 3.205-2.9 5.203-10.721 5.573v42.226h10.721v-16.477c23.009-4.008 34.588-17.962 34.588-33.994 0-26.953-28.451-29.791-45.309-33.454v29.17c6.339 1.543 10.721 3.349 10.721 6.956z" fill="#fd9e28"/></g></svg>