<?xml version="1.0" encoding="iso-8859-1"?>
<!-- Generator: Adobe Illustrator 19.0.0, SVG Export Plug-In . SVG Version: 6.00 Build 0)  -->
<svg version="1.1" id="Capa_1" xmlns="http://www.w3.org/2000/svg" xmlns:xlink="http://www.w3.org/1999/xlink" x="0px" y="0px"
	 viewBox="0 0 512 512" style="enable-background:new 0 0 512 512;" xml:space="preserve">
<path style="fill:#9A4C00;" d="M289.46,474.866h-52.72c-7.427,0-13.447-6.02-13.447-13.447V263.381h79.613v198.038
	C302.907,468.846,296.887,474.866,289.46,474.866z"/>
<path style="fill:#663A00;" d="M223.294,382.826c12.913,2.382,26.215,3.637,39.807,3.637c13.592,0,26.894-1.256,39.807-3.637
	V263.381h-79.613v119.444H223.294z"/>
<g>
	<path style="fill:#AA6100;" d="M428.011,494.755l-91.636-259.34l-71.1,25.122l85.835,242.924c1.813,5.132,6.672,8.557,12.116,8.539
		h52.742C424.789,511.971,430.949,503.069,428.011,494.755z"/>
	<path style="fill:#AA6100;" d="M98.189,494.755l91.636-259.34l71.1,25.122L175.09,503.461c-1.813,5.132-6.672,8.557-12.116,8.539
		h-52.771C101.384,511.971,95.251,503.069,98.189,494.755z"/>
</g>
<g>
	<path style="fill:#9A4C00;" d="M336.375,235.415l-71.1,25.122l35.913,101.638c25.365-4.953,49.014-14.75,69.944-28.393
		L336.375,235.415z"/>
	<path style="fill:#9A4C00;" d="M155.068,333.782c20.93,13.643,44.579,23.44,69.944,28.393l35.913-101.638l-71.1-25.122
		L155.068,333.782z"/>
</g>
<circle style="fill:#CC7400;" cx="263.099" cy="167.477" r="167.477"/>
<path style="fill:#AA6100;" d="M191.874,167.477c0-75.766,50.316-139.769,119.352-160.447C295.982,2.464,279.83,0,263.101,0
	C170.606,0,95.624,74.982,95.624,167.477s74.982,167.477,167.477,167.477c16.729,0,32.881-2.464,48.125-7.03
	C242.189,307.245,191.874,243.242,191.874,167.477z"/>
<circle style="fill:#FFFFFF;" cx="263.099" cy="167.477" r="114.206"/>
<path style="fill:#D1E7F8;" d="M233.317,277.751c-25.801-29.458-41.444-68.036-41.444-110.274s15.643-80.816,41.444-110.275
	c-48.63,13.102-84.423,57.505-84.423,110.275S184.687,264.648,233.317,277.751z"/>
<circle style="fill:#FF0C38;" cx="263.099" cy="167.477" r="48.686"/>
<path style="fill:#D9CCBC;" d="M119.814,42.108L90.317,49.5c-5.757,1.442-7.404,8.833-2.805,12.583l40.075,32.687
	c4.86,3.965,11.471,5.027,17.329,2.785l29.184-11.169l5.075-30.833c1.019-6.189-1.351-12.451-6.211-16.416L132.888,6.449
	c-4.599-3.751-11.506-0.652-11.763,5.277L119.814,42.108z"/>
<path style="fill:#9A4C00;" d="M248.208,146.831c-2.697,3.307-7.564,3.801-10.87,1.104L114.453,47.706
	c-3.307-2.697-3.801-7.564-1.104-10.87c2.697-3.307,7.564-3.801,10.87-1.104L247.104,135.96
	C250.412,138.657,250.906,143.524,248.208,146.831z"/>
<path style="fill:#C0AB91;" d="M101.065,172.368l-18.178,24.378c-3.547,4.757-0.15,11.524,5.783,11.522l51.714-0.018
	c6.273-0.002,12.065-3.358,15.186-8.8l15.546-27.106l-15.564-27.096c-3.125-5.439-8.919-8.792-15.192-8.789l-51.714,0.018
	c-5.934,0.002-9.326,6.77-5.776,11.526L101.065,172.368z"/>
<path style="fill:#663A00;" d="M266.752,172.313c0.001,4.268-3.456,7.727-7.724,7.728l-158.578,0.053
	c-4.268,0.001-7.727-3.456-7.728-7.724c-0.001-4.268,3.456-7.727,7.724-7.728l158.578-0.053
	C263.29,164.588,266.751,168.045,266.752,172.313z"/>
<g>
</g>
<g>
</g>
<g>
</g>
<g>
</g>
<g>
</g>
<g>
</g>
<g>
</g>
<g>
</g>
<g>
</g>
<g>
</g>
<g>
</g>
<g>
</g>
<g>
</g>
<g>
</g>
<g>
</g>
</svg>
