<?xml version="1.0" encoding="iso-8859-1"?>
<!-- Generator: Adobe Illustrator 19.0.0, SVG Export Plug-In . SVG Version: 6.00 Build 0)  -->
<svg version="1.1" id="Capa_1" xmlns="http://www.w3.org/2000/svg" xmlns:xlink="http://www.w3.org/1999/xlink" x="0px" y="0px"
	 viewBox="0 0 512 512" style="enable-background:new 0 0 512 512;" xml:space="preserve">
<path style="fill:#E88E6B;" d="M320.437,300.028c0,3.335-0.847,6.71-2.636,9.803l-37.746,65.379l-15.827,6.266l-43.03,17.037
	l62.542-108.342c5.433-9.413,17.454-12.627,26.853-7.194c2.851,1.641,5.123,3.873,6.764,6.468
	C319.375,292.605,320.437,296.289,320.437,300.028z"/>
<path style="fill:#F2A077;" d="M355.569,289.534c0,3.335-0.847,6.71-2.636,9.803l-31.022,53.72l-43.03,17.037l-15.827,6.266
	l53.129-92.031l2.689-4.653c5.433-9.413,17.454-12.627,26.853-7.194C352.045,276.114,355.569,282.73,355.569,289.534z"/>
<path style="fill:#FFCCAA;" d="M382.229,267.493c-9.409-5.426-21.432-2.207-26.858,7.202l-35.047,60.696
	c-3.564,6.178-9.581,10.544-16.561,12.011l-87.246,24.071c-8.2,2.257-16.796-1.874-20.15-9.68c-0.938-2.17-1.394-4.452-1.394-6.721
	c0-4.563,1.85-9.051,5.303-12.332l24.614-23.356c9.261-8.213,10.124-22.369,1.924-31.63c-4.427-5.007-10.593-7.559-16.783-7.559
	c-5.29,0-10.593,1.85-14.86,5.636l-48.093,42.581c-6.832,6.055-10.753,14.749-10.753,23.874v35.897c0,3.169-0.617,6.314-1.837,9.236
	l-19.779,46.095l95.619,40.707l23.133-54.159c2.195-5.266,6.19-9.582,11.271-12.184l97.444-49.746
	c4.304-2.207,7.892-5.611,10.309-9.804l36.933-63.976C394.857,284.943,391.626,272.919,382.229,267.493z"/>
<g>
	<path style="fill:#F2A077;" d="M206.602,309.633l-24.614,23.356c-3.453,3.28-5.303,7.769-5.303,12.332
		c0,2.269,0.456,4.55,1.394,6.721c3.121,7.263,10.779,11.337,18.435,10.052c-0.046-0.102-0.101-0.197-0.146-0.3
		c-0.937-2.17-1.393-4.452-1.393-6.721c0-4.563,1.85-9.051,5.303-12.332l24.614-23.356c9.261-8.213,10.124-22.369,1.924-31.63
		c-4.382-4.956-10.468-7.503-16.595-7.554C216.529,289.387,215.16,302.044,206.602,309.633z"/>
	<path style="fill:#F2A077;" d="M382.229,267.493c-3.506-2.022-7.374-2.84-11.13-2.588c3.409,5.887,3.682,13.376,0.03,19.695
		l-36.933,63.976c-2.417,4.193-6.005,7.596-10.309,9.804l-97.444,49.746c-5.08,2.602-9.076,6.918-11.271,12.184l-23.133,54.159
		l-76.617-32.617l-0.713,1.662l95.619,40.707l23.133-54.159c2.195-5.266,6.191-9.582,11.271-12.184l97.444-49.746
		c4.304-2.207,7.892-5.611,10.309-9.804l36.933-63.976C394.857,284.943,391.626,272.919,382.229,267.493z"/>
</g>
<path style="fill:#75DC5E;" d="M103.509,424.956L90.3,459.371L216.807,512l13.495-35.16c2.787-7.262-0.712-15.423-7.894-18.411
	l-99.969-41.588C114.969,413.733,106.408,417.403,103.509,424.956z"/>
<path style="fill:#2AAD52;" d="M222.408,458.429l-17.805-7.407c2.968,4.031,3.888,9.429,1.967,14.433l-13.995,36.464L216.807,512
	l13.495-35.16C233.089,469.578,229.589,461.416,222.408,458.429z"/>
<path style="fill:#99462B;" d="M191.561,211.972c0-3.335,0.847-6.71,2.636-9.803l37.746-65.379l15.827-6.266l43.03-17.037
	l-62.542,108.342c-5.433,9.413-17.454,12.627-26.853,7.194c-2.851-1.64-5.123-3.873-6.764-6.468
	C192.623,219.395,191.561,215.711,191.561,211.972z"/>
<path style="fill:#B05A3D;" d="M156.429,222.466c0-3.335,0.847-6.71,2.636-9.803l31.022-53.72l43.03-17.037l15.827-6.266
	l-53.129,92.031l-2.689,4.653c-5.433,9.413-17.454,12.627-26.853,7.194C159.953,235.886,156.429,229.27,156.429,222.466z"/>
<path style="fill:#D7875F;" d="M129.77,244.507c9.409,5.426,21.432,2.207,26.858-7.202l35.047-60.696
	c3.564-6.178,9.581-10.544,16.561-12.011l87.246-24.071c8.2-2.257,16.796,1.874,20.15,9.68c0.938,2.17,1.394,4.452,1.394,6.721
	c0,4.563-1.85,9.051-5.303,12.332l-24.614,23.356c-9.261,8.213-10.124,22.369-1.924,31.631c4.427,5.007,10.593,7.559,16.783,7.559
	c5.29,0,10.593-1.85,14.86-5.636l48.093-42.581c6.832-6.055,10.753-14.749,10.753-23.874v-35.897c0-3.169,0.617-6.314,1.837-9.236
	l18.936-46.095L300.828,27.78l-22.29,54.159c-2.195,5.266-6.19,9.582-11.271,12.184l-97.444,49.746
	c-4.304,2.207-7.892,5.611-10.309,9.804l-36.933,63.976C117.141,227.057,120.372,239.081,129.77,244.507z"/>
<path style="fill:#B05A3D;" d="M373.555,58.741l-18.708,45.538c-1.221,2.923-1.837,6.067-1.837,9.236v35.897
	c0,9.125-3.922,17.819-10.753,23.874l-48.093,42.581c-3.285,2.915-7.187,4.671-11.222,5.329c0.658,1.058,1.39,2.085,2.243,3.049
	c4.427,5.007,10.593,7.559,16.783,7.559c5.29,0,10.593-1.85,14.86-5.636l48.093-42.581c6.832-6.055,10.753-14.749,10.753-23.874
	v-35.897c0-3.169,0.616-6.314,1.837-9.236l18.936-46.095L373.555,58.741z"/>
<path style="fill:#2BB4F3;" d="M408.489,87.044l13.209-34.415L295.192,0l-13.495,35.16c-2.787,7.262,0.712,15.423,7.894,18.411
	l99.969,41.588C397.029,98.267,405.59,94.597,408.489,87.044z"/>
<path style="fill:#1687C4;" d="M398.993,43.183l-12.715,33.128c-2.696,7.024-9.665,11.117-16.771,10.507l20.053,8.342
	c7.47,3.107,16.031-0.563,18.93-8.116l13.209-34.415L398.993,43.183z"/>
<g>
</g>
<g>
</g>
<g>
</g>
<g>
</g>
<g>
</g>
<g>
</g>
<g>
</g>
<g>
</g>
<g>
</g>
<g>
</g>
<g>
</g>
<g>
</g>
<g>
</g>
<g>
</g>
<g>
</g>
</svg>
