<?xml version="1.0" encoding="utf-8"?>
<!-- Generator: Adobe Illustrator 18.0.0, SVG Export Plug-In . SVG Version: 6.00 Build 0)  -->
<!DOCTYPE svg PUBLIC "-//W3C//DTD SVG 1.1//EN" "http://www.w3.org/Graphics/SVG/1.1/DTD/svg11.dtd">
<svg xmlns="http://www.w3.org/2000/svg" xmlns:xlink="http://www.w3.org/1999/xlink" version="1.1" id="Layer_2" x="0px" y="0px" viewBox="0 0 64 64" style="enable-background:new 0 0 64 64;" xml:space="preserve" width="512" height="512">
<style type="text/css">
	.st0{fill:#EDEFF1;}
	.st1{fill:#D3D3D3;}
	.st2{fill:#98CA69;}
	.st3{fill:#80D6FB;}
	.st4{fill:#FFB0AA;}
	.st5{fill:#FFE352;}
	.st6{fill:#6E83B7;}
	.st7{fill:#466089;}
	.st8{fill:#FFD3B3;}
	.st9{fill:#FCB98B;}
	.st10{fill:#FFB236;}
	.st11{fill:#46BEE8;}
	.st12{fill:#E0E2FF;}
	.st13{fill:#8FA5D1;}
	.st14{fill:#75AA40;}
</style>
<g>
	<g>
		<g>
			<g>
				<g>
					<path class="st0" d="M42.676,38.966L32,36h-6h-6L9.324,38.966C4.995,40.168,2,44.109,2,48.601V62h24h24V48.601       C50,44.109,47.005,40.168,42.676,38.966z"/>
				</g>
			</g>
			<g>
				<polygon class="st1" points="37.016,37.393 32,36 20,36 14.984,37.393 21.932,47.686 26,42.6 30.068,47.686     "/>
			</g>
			<g>
				<path class="st3" d="M16,37.111l-6.676,1.855C4.995,40.168,2,44.109,2,48.601V62h24l-6-10L16,37.111z"/>
			</g>
			<g>
				<path class="st3" d="M36,37.111l6.676,1.855C47.005,40.168,50,44.109,50,48.601V62H26l6-10L36,37.111z"/>
			</g>
			<g>
				<path class="st11" d="M44.29,39.57c0.182,1.104,0.931,2.293,1.626,3.193c-0.036,0.089-0.068,0.177-0.091,0.271      C42.961,44.541,41,47.544,41,51v5.122c0,0.299-0.117,0.58-0.328,0.792l-0.759,0.758C39.324,58.262,39,59.046,39,59.88      c0,0.821,0.325,1.563,0.845,2.12H50V48.601C50,44.692,47.731,41.203,44.29,39.57z"/>
			</g>
			<g>
				<rect x="10" y="56" class="st11" width="2" height="6"/>
			</g>
			<g>
				<polygon class="st9" points="32,29 32,36 26,41 20,36 20,29     "/>
			</g>
			<g>
				<path class="st8" d="M37,15v6c0,6.075-4.925,11-11,11h0h0c-6.075,0-11-4.925-11-11v-6c0-2.209,1.791-4,4-4h14      C35.209,11,37,12.791,37,15z"/>
			</g>
			<path class="st6" d="M33,5h-0.141C32.413,3.278,30.862,2,29,2h-4c-5.523,0-10,4.477-10,10v9l2-6h12c1.862,0,3.412-1.278,3.859-3     h0.537c0.937,0,1.749,0.651,1.952,1.566L37,21V9C37,6.791,35.209,5,33,5z"/>
			<g>
				<path class="st8" d="M37,15h0.639c1.236,0,2.176,1.11,1.973,2.329l-0.333,2C39.118,20.293,38.283,21,37.306,21H37V15z"/>
			</g>
			<g>
				<path class="st8" d="M15,15h-0.639c-1.236,0-2.176,1.11-1.973,2.329l0.333,2C12.882,20.293,13.717,21,14.694,21H15V15z"/>
			</g>
		</g>
		<g>
			<polygon class="st0" points="20,34 16,37.111 22,46 26,41    "/>
		</g>
		<g>
			<polygon class="st0" points="32,34 36,37.111 30,46 26,41    "/>
		</g>
		<polygon class="st4" points="30,46 26,41 22,46 24,49 22.824,57.176 26,62 29.176,57.176 28,49   "/>
	</g>
	<g>
		<g>
			<path class="st6" d="M54.184,43.429c0,0,3.87-3.942,2.122-5.306c-1.21-0.945-2.44,0.566-3.184-0.531C52.003,35.942,51,36,51,36     s-1.003-0.058-2.122,1.592c-0.744,1.096-1.973-0.415-3.184,0.531c-1.747,1.364,2.122,5.306,2.122,5.306H54.184z"/>
		</g>
		<path class="st7" d="M54.823,42.051c-0.62-0.28-1.343-0.46-2.013-0.574c0.36-0.386,0.662-0.926,0.803-1.67l-0.982-0.187    c-0.25,1.312-1.079,1.617-1.443,1.69c-0.064-0.002-0.134-0.005-0.188-0.005c-0.05,0-0.115,0.003-0.173,0.004    c-0.381-0.073-1.208-0.379-1.457-1.689l-0.982,0.187c0.141,0.744,0.443,1.284,0.804,1.67c-0.67,0.114-1.393,0.294-2.014,0.574    c-0.132,0.06-0.253,0.138-0.361,0.227c0.535,0.676,1,1.15,1,1.15h6.367c0,0,0.465-0.474,1-1.15    C55.075,42.189,54.955,42.111,54.823,42.051z"/>
		<g>
			<path class="st5" d="M51,44.49h4.245v-0.978c0-0.424-0.254-0.802-0.641-0.977c-1.234-0.557-2.935-0.698-3.604-0.698     s-2.37,0.141-3.604,0.698c-0.387,0.175-0.641,0.552-0.641,0.977v0.978H51z"/>
		</g>
		<g>
			<path class="st6" d="M51,43h1c4.418,0,8,3.582,8,8v5.122c0,0.562,0.223,1.101,0.621,1.499l0.758,0.758     C61.777,58.777,62,59.316,62,59.878v0.002c0,1.171-0.949,2.12-2.12,2.12h-9.268H42.12C40.949,62,40,61.051,40,59.88v-0.002     c0-0.562,0.223-1.101,0.621-1.499l0.758-0.758C41.777,57.223,42,56.684,42,56.122V51c0-4.418,3.582-8,8-8H51z"/>
		</g>
		<g>
			<circle class="st5" cx="51" cy="51.918" r="4"/>
		</g>
		<path class="st6" d="M51.53,51.418H50.47c-0.31,0-0.562-0.252-0.562-0.562s0.252-0.561,0.562-0.561h1.061    c0.31,0,0.562,0.251,0.562,0.561h1c0-0.861-0.7-1.561-1.562-1.561H51.5v-0.562h-1v0.562h-0.03c-0.861,0-1.562,0.7-1.562,1.561    s0.7,1.562,1.562,1.562h1.061c0.31,0,0.562,0.251,0.562,0.561s-0.252,0.561-0.562,0.561H50.47c-0.31,0-0.562-0.251-0.562-0.561h-1    c0,0.861,0.7,1.561,1.562,1.561h0.03v0.562h1v-0.562h0.03c0.861,0,1.562-0.7,1.562-1.561S52.392,51.418,51.53,51.418z"/>
	</g>
</g>
</svg>
