<svg id="Capa_1" enable-background="new 0 0 512 512" height="512" viewBox="0 0 512 512" width="512" xmlns="http://www.w3.org/2000/svg"><g><g><path d="m341.37 190.67c-4.1 7.23-13.26 9.74-20.45 5.67l-64.92-36.74-74.93-42.4c-7.21-4.08-9.75-13.23-5.67-20.44s13.24-9.75 20.45-5.67l60.15 34.04 79.7 45.1c7.21 4.08 9.75 13.23 5.67 20.44z" fill="#61729b"/></g><path d="m341.37 190.67c-4.1 7.23-13.26 9.74-20.45 5.67l-64.92-36.74v-34.47l79.7 45.1c7.21 4.08 9.75 13.23 5.67 20.44z" fill="#47568c"/><g><path d="m136 0c-.33 0-.67 0-1 .01-40.89.54-74 33.97-74 74.99s33.11 74.45 74 74.99c.33.01.67.01 1 .01 41.35 0 75-33.65 75-75s-33.65-75-75-75z" fill="#fed843"/></g><path d="m211 75c0 41.35-33.65 75-75 75-.33 0-.67 0-1-.01v-149.98c.33-.01.67-.01 1-.01 41.35 0 75 33.65 75 75z" fill="#fabe2c"/><g><path d="m226.736 325.87c-3.953-7.28-1.256-16.387 6.024-20.34l88.394-47.997c7.28-3.953 16.386-1.256 20.34 6.024 3.953 7.28 1.256 16.387-6.024 20.34l-88.394 47.997c-7.248 3.936-16.369 1.289-20.34-6.024z" fill="#47568c"/></g><g><path d="m407 122c-57.9 0-105 47.1-105 105s47.1 105 105 105 105-47.1 105-105-47.1-105-105-105z" fill="#ff7b4a"/></g><g><path d="m135 242c-74.44 0-135 60.56-135 135s60.55 135 135 135c74.56 0 135-60.65 135-135 0-74.44-60.56-135-135-135z" fill="#7ed8f6"/><path d="m270 377c0 74.35-60.44 135-135 135v-270c74.44 0 135 60.56 135 135z" fill="#6aa9ff"/></g><g><path d="m135 302c-24.81 0-45 20.19-45 45s20.19 45 45 45 45-20.19 45-45-20.19-45-45-45z" fill="#f0f7ff"/></g><path d="m180 347c0 24.81-20.19 45-45 45v-90c24.81 0 45 20.19 45 45z" fill="#dfe7f4"/><path d="m221.17 436.92c-18.98 27.23-50.53 45.08-86.17 45.08-35.63 0-67.17-17.83-86.15-45.05 18.88-27.08 50.23-44.95 86.15-44.95 35.91 0 67.29 17.84 86.17 44.92z" fill="#f0f7ff"/><path d="m221.17 436.92c-18.98 27.23-50.53 45.08-86.17 45.08v-90c35.91 0 67.29 17.84 86.17 44.92z" fill="#dfe7f4"/><path d="m512 227c0 57.9-47.1 105-105 105v-210c57.9 0 105 47.1 105 105z" fill="#ff435b"/></g></svg>