<svg id="Icons" enable-background="new 0 0 512 512" height="512" viewBox="0 0 512 512" width="512" xmlns="http://www.w3.org/2000/svg" xmlns:xlink="http://www.w3.org/1999/xlink"><clipPath id="SVGID_2_"><path id="SVGID_5_" d="m121.547 345.658c-8.834 0-15.996-7.162-15.996-15.996v-15.906c.841-21.214 31.151-21.216 31.992 0v15.906c.001 8.834-7.161 15.996-15.996 15.996z"/></clipPath><clipPath id="SVGID_4_"><path id="SVGID_7_" d="m125.897 180.352h-8.7c-29.082 0-52.658 23.576-52.658 52.658v36.041c0 29.082 23.576 52.658 52.658 52.658h8.7c29.082 0 52.658-23.576 52.658-52.658v-36.041c0-29.082-23.575-52.658-52.658-52.658z"/></clipPath><g><path d="m512 256c0 9.32-.5 18.53-1.47 27.59-.43 4.02-.95 8.01-1.57 11.98-.41 2.66-.87 5.31-1.37 7.95-22.27 118.68-126.45 208.48-251.59 208.48-23.49 0-46.23-3.16-67.84-9.09-3.36-.92-6.69-1.91-9.99-2.96-39.41-12.56-74.69-34.41-103.24-62.98-7.09-7.1-13.77-14.6-19.99-22.49-34.4-43.59-54.94-98.64-54.94-158.48 0-141.38 114.62-256 256-256 61.13 0 117.25 21.43 161.27 57.18 3.18 2.57 6.29 5.23 9.33 7.95 4.31 3.86 8.49 7.85 12.53 11.98 45.08 46.16 72.87 109.28 72.87 178.89z" fill="#f39e22"/><g><g><g><path d="m239.61 283.59v-206.48h199.52c-6.902-7.043-14.19-13.716-21.86-19.93h-187.62c-5.5 0-9.97 4.47-9.97 9.97v226.41c0 5.5 4.47 9.96 9.97 9.96h277.94c1.252-6.605 2.223-13.23 2.94-19.93z" fill="#a26d5a"/><path d="m239.61 283.59v-206.48h199.52c-4.04-4.13-8.22-8.12-12.53-11.98h-188.4c-5.15 0-9.32 4.17-9.32 9.31v211.82c0 5.14 4.17 9.31 9.32 9.31h270.76c.62-3.97 1.14-7.96 1.57-11.98z" fill="#d48d77"/><g fill="#eea47d"><path d="m239.611 114.109v91.637c0 2.964-2.403 5.368-5.368 5.368-2.964 0-5.368-2.403-5.368-5.368v-91.637c.208-7.068 10.511-7.118 10.736 0z"/><path d="m380.344 77.113h-102.299c-3.309 0-5.992-2.683-5.992-5.992s2.683-5.992 5.992-5.992h102.298c7.903.261 7.958 11.703.001 11.984z"/><path d="m477.654 295.575h-132.298c-7.892-.256-7.966-11.7 0-11.984h132.298c7.892.256 7.966 11.699 0 11.984z"/></g></g><path d="m512 256c0 9.32-.5 18.53-1.47 27.59h-270.92v-206.48h199.52c45.08 46.16 72.87 109.28 72.87 178.89z" fill="#50755c"/></g><g fill="#fff"><path d="m344.04 180.68-27.57-59.04c-2.31-5.399-11.04-5.404-13.34 0 0 0-27.48 59.04-27.48 59.04-2.712 5.236 3.96 10.086 8.56 7.22.93-.57 1.66-1.45 2.19-2.64l5.98-13.34h35.04l5.97 13.34c.53 1.19 1.26 2.07 2.19 2.64 4.652 2.876 11.147-2.009 8.46-7.22zm-47.28-18.72 13.14-29.56 13.14 29.56z"/><path d="m389.39 143.5c-4.913-5.516-16.64-5.919-24.59-3.94-4.317 1.149-8.598 2.249-11.15 5.33-1.919 2.721-.531 7.741 3.23 7.62.8 0 2.06-.44 3.79-1.3 4.822-1.786 8.259-3.241 12.94-3.28 7.766-.097 9.164 4.715 8.86 11.64-10.211.135-22.561-.221-28.42 5.88-3.51 3.802-3.635 11.74-.45 16.22 6.055 9.642 24.093 10.55 28.87-.79v2.19c-.282 5.452 6.747 7.498 10.25 4.23 1.06-1.03 1.6-2.44 1.6-4.23v-24.29c0-6.84-1.65-11.93-4.93-15.28zm-6.92 24.74c0 3.51-1.05 6.38-3.14 8.61-3.125 3.541-9.929 4.737-13.64 1.29-2.551-2.113-3.156-7.017-.64-9.31 1.06-.99 2.82-1.69 5.27-2.09 2.561-.472 7.864-.645 12.15-.6z"/></g></g><g><g id="Person1_2_"><g id="Arm_5_"><path d="m221.433 431.539c-20.449 0-42.436-17.937-71.778-58.035l26.631-19.488c33.323 45.537 45.529 44.5 45.638 44.467.032-.006 3.477-1.359 8.202-12.63 4.754-11.341 8.599-27.315 12.13-42.704l32.164 7.379c-8.795 37.391-17.876 80.24-52.987 81.011z" fill="#c0405c"/></g><g id="Hand_5_"><path d="m239.909 346.839c.003 7.387 5.988 13.394 13.39 13.39h36.36c7.461.02 13.418-6.142 13.39-13.39-.002-7.402-5.988-13.388-13.39-13.39h-36.36c-7.252-.029-13.407 5.921-13.39 13.39z" fill="#723e33"/><path d="m245.909 340.839c.003 7.387 5.988 13.394 13.39 13.39h36.36c2.15 0 4.17-.5 5.97-1.4 4.525-8.617-2.179-19.563-11.97-19.38h-36.36c-2.15 0-4.18.51-5.98 1.41-.9 1.8-1.41 3.83-1.41 5.98z" fill="#9b5b42"/></g><g id="Body_7_"><g><path d="m188.16 390.81v112.1c-52.985-14.5-99.681-45.896-133.22-88.43v-23.67c.941-69.526 92.229-91.823 125.38-31.37 5.012 9.339 7.837 20.039 7.84 31.37z" fill="#c0405c"/><path d="m188.16 390.81v112.1c-43.056-11.748-82.364-34.981-113.23-65.94.416-10.597-1.206-50.354 1.45-60.03 4.157-20.148 18.257-37.802 36.9-46.45 5.784-2.713 11.952-4.572 18.27-5.55 21.156 3.179 39.06 16.336 48.77 34.5 5.012 9.339 7.837 20.039 7.84 31.37z" fill="#ee6781"/><path d="m178.17 390.81v109.14c-39.41-12.56-74.69-34.41-103.24-62.98.416-10.597-1.206-50.354 1.45-60.03 5.02-24.75 25.251-45.407 49.88-50.96 29.793 6.082 52.185 34.145 51.91 64.83z" fill="#e9465e"/></g><g><path d="m153.963 332.712c0 9.32-.9 18.29-2.4 26.77-7.5 42.43-30.02 72.62-30.02 72.62-7.134-8.591-33.479-55.044-32.42-99.39 5.1-2.84 10.62-5.04 16.43-6.47v3.42c0 8.839 7.158 15.999 15.99 16 8.84 0 16-7.17 16-16v-3.42c5.81 1.43 11.32 3.62 16.42 6.47z" fill="#e8f3fc"/><g fill="#b7dbf6"><path d="m153.963 332.712c0 9.32-.9 18.29-2.4 26.77 0 0-19.69-.01-30.02-13.82 8.84 0 16-7.17 16-16v-3.42c5.81 1.43 11.32 3.62 16.42 6.47z"/><path d="m121.543 345.662c-10.32 13.81-30.01 13.82-30.01 13.82-1.51-8.48-2.41-17.45-2.41-26.77 5.1-2.84 10.62-5.04 16.43-6.47v3.42c.001 8.839 7.158 15.999 15.99 16z"/></g></g></g><g id="HEAD_7_"><g id="Ears_6_"><g fill="#8e4e3f"><path d="m86.156 272.025c.735 8.918-6.141 16.844-15.197 16.795h-12.839c-20.319-.497-20.319-31.496 0-31.992h12.839c8.393 0 15.197 6.804 15.197 15.197z"/><path d="m200.172 272.025c.735 8.918-6.141 16.844-15.197 16.795h-12.839c-20.319-.497-20.319-31.496 0-31.992h12.839c8.393 0 15.197 6.804 15.197 15.197z"/></g><g fill="#723e33"><path d="m91.543 272.824c0 3.52-2.853 6.373-6.373 6.373h-23.907c-3.52 0-6.373-2.853-6.373-6.373s2.853-6.373 6.373-6.373h23.907c3.52 0 6.373 2.853 6.373 6.373z"/><path d="m188.205 272.824c0 3.52-2.853 6.373-6.373 6.373h-23.907c-3.52 0-6.373-2.853-6.373-6.373s2.853-6.373 6.373-6.373h23.907c3.52 0 6.373 2.853 6.373 6.373z"/></g></g><g id="Neck_6_"><path clip-path="url(#SVGID_2_)" d="m121.547 345.658c-8.834 0-15.996-7.162-15.996-15.996v-15.906c.841-21.214 31.151-21.216 31.992 0v15.906c.001 8.834-7.161 15.996-15.996 15.996z" fill="#723e33"/><path clip-path="url(#SVGID_2_)" d="m129.547 345.658c-8.834 0-15.996-7.162-15.996-15.996v-15.906c.841-21.214 31.151-21.216 31.992 0v15.906c.001 8.834-7.161 15.996-15.996 15.996z" fill="#8e4e3f"/><path clip-path="url(#SVGID_2_)" d="m125.897 188.352h-8.7c-29.082 0-52.658 23.576-52.658 52.658v36.041c0 29.082 23.576 52.658 52.658 52.658h8.7c29.082 0 52.658-23.576 52.658-52.658v-36.041c0-29.082-23.575-52.658-52.658-52.658z" fill="#723e33"/></g><g id="Face_6_"><path clip-path="url(#SVGID_4_)" d="m125.897 180.352h-8.7c-29.082 0-52.658 23.576-52.658 52.658v36.041c0 29.082 23.576 52.658 52.658 52.658h8.7c29.082 0 52.658-23.576 52.658-52.658v-36.041c0-29.082-23.575-52.658-52.658-52.658z" fill="#8e4e3f"/><path clip-path="url(#SVGID_4_)" d="m142.897 180.352h-8.7c-29.082 0-52.658 23.576-52.658 52.658v36.041c0 29.082 23.576 52.658 52.658 52.658h8.7c29.082 0 52.658-23.576 52.658-52.658v-36.041c0-29.082-23.575-52.658-52.658-52.658z" fill="#9b5b42"/></g><g id="Blush_2_" fill="#8e4e3f"><path d="m164.855 278.515c0-4.372-3.544-7.916-7.916-7.916-10.489.388-10.486 15.446 0 15.832 4.371 0 7.916-3.544 7.916-7.916z"/><path d="m94.072 278.515c0-4.372-3.544-7.916-7.916-7.916-10.489.388-10.486 15.446 0 15.832 4.372 0 7.916-3.544 7.916-7.916z"/></g><path id="Mouth_2_" d="m121.548 296.41c-6.599 0-12.566-2.023-15.572-5.279-1.745-1.96 1.117-4.616 2.94-2.713 4.585 5.257 20.681 5.255 25.264 0 1.806-1.901 4.695.75 2.939 2.713-3.007 3.256-8.973 5.279-15.571 5.279z" fill="#723e33"/><g id="Mouth2_3_"><path d="m141.073 284.082c.076 10.639-8.839 19.614-19.53 19.52-9.655.019-17.845-7.083-19.269-16.576-.01-.008-.021-.016-.031-.024-.146-.972-.214-1.935-.22-2.92z" fill="#961b3b"/><path d="m137.543 288.342c.018 4.047-1.404 8.012-3.75 10.94-3.35 2.71-7.61 4.32-12.25 4.32s-8.89-1.61-12.24-4.32c-2.348-2.932-3.771-6.899-3.75-10.94z" fill="#cc2561"/><path id="Mouth2_4_" d="m139.76 285.328v2.559c-9.262 7.405-26.392 7.569-35.892.393v-2.952z" fill="#e8f3fc"/><path d="m102.244 287.001c1.02.875 2.142 1.68 3.352 2.404-.021-.352-.045-2.702-.045-3.059h31.992c0 .357-.01 2.705-.03 3.056 1.21-.725 2.317-1.526 3.337-2.401.144-.954.226-1.928.226-2.923h-39.058c0 .994.082 1.969.226 2.923z" fill="#723e33"/></g><g id="Nose1_5_"><path d="m130.318 278.34h-17.541c-2.624-.043-2.633-3.955 0-4h17.541c2.623.043 2.633 3.955 0 4z" fill="#723e33"/></g><g id="Eyes_7_"><path d="m107.446 258.615c0-4.323-3.504-7.827-7.827-7.827-10.371.384-10.368 15.272 0 15.654 4.323 0 7.827-3.504 7.827-7.827z" fill="#723e33"/><path d="m151.303 258.615c0-4.323-3.504-7.827-7.827-7.827-10.371.384-10.368 15.272 0 15.654 4.323 0 7.827-3.504 7.827-7.827z" fill="#723e33"/><path d="m106.911 261.537c0-4.028-3.265-7.293-7.293-7.293-9.654.333-9.651 14.253 0 14.585 4.028 0 7.293-3.265 7.293-7.292z" fill="#122894"/><path d="m104.72 261.688c3.376-3.551-1.702-8.628-5.253-5.252-3.375 3.551 1.703 8.628 5.253 5.252z" fill="#e8f3fc"/><path d="m150.769 261.537c0-4.028-3.265-7.293-7.293-7.293-9.654.333-9.651 14.253 0 14.585 4.028 0 7.293-3.265 7.293-7.292z" fill="#122894"/><path d="m148.577 261.688c3.376-3.551-1.702-8.628-5.253-5.252-3.375 3.551 1.703 8.628 5.253 5.252z" fill="#e8f3fc"/></g><g id="Hair1_1_"><path d="m186.39 288.75c-.559.134-10.812.047-11.68.07-4.17 10.27-11.48 18.92-20.75 24.77h33.8v-25.04c-.45.09-.91.15-1.37.2zm-118.01.07c-2.137-.081-11.116.232-13.05-.27v25.04h33.79c-9.26-5.85-16.57-14.5-20.74-24.77zm119.3-58.69c-.986-25.554-19.635-48.979-44.31-55.69-5.414-1.555-11.086-2.342-16.77-2.35-5.548.076-13.857-.274-19.27.68-20.854 3.009-39.41 17.579-47.36 37.08-2.603 6.291-4.144 12.991-4.53 19.87-.234 1.901-.057 24.887-.11 27.37 1.86-.441 7.236-.204 9.21-.26v-23.31c20.427 6.626 44.495-3.214 54.66-21.43 5.156 25.791 33.506 43.228 59.35 35.39v9.35c.685.016 6.902-.04 7.41.04.599.022 1.207.117 1.8.22-.026-1.858.073-25.901-.08-26.96z" fill="#442a21"/><g fill="#543029"><path d="m187.763 233.252v23.84c-1.86-.442-7.236-.204-9.21-.26v-9.35c-25.848 7.837-54.192-9.599-59.35-35.39-7.74 13.16-21.63 22.26-37.72 23.35v-10.12c-.383-30.576 28.477-58.568 59.01-51.631 4.806 1.122 9.481 2.819 13.87 5.071 20.188 10.076 33.613 31.92 33.4 54.49z"/><path d="m184.973 288.822c.96 0 1.89-.1 2.79-.27v25.04h-33.8c9.27-5.85 16.58-14.5 20.75-24.77z"/></g></g></g></g><g><path d="m263.17 329.143c-8.663 8.793 3.865 21.603 12.862 12.862 0 0 102.141-108.604 102.141-108.604 2.704-2.761.575-7.663-3.225-7.623-1.145-.014-2.284.389-3.175 1.223z" fill="#daab42"/><path d="m263.17 329.143c-1.047.99-1.81 2.164-2.291 3.422 3.009 4.966 10.156 5.829 14.213 1.64 24.617-24.771 79.175-79.687 104.199-104.878-.647-3.329-5.088-4.743-7.517-2.326-25.313 23.804-83.876 78.877-108.604 102.142z" fill="#f9c744"/><path d="m303.666 291.051c3.296 4.2 9.629 4.59 13.428.884.138-.111 62.051-62.479 62.197-62.607-.642-3.334-5.091-4.739-7.517-2.326 0 0-68.108 64.049-68.108 64.049z" fill="#fad98f"/></g></g></g></svg>