<?xml version="1.0" encoding="iso-8859-1"?>
<!-- Generator: Adobe Illustrator 19.0.0, SVG Export Plug-In . SVG Version: 6.00 Build 0)  -->
<svg version="1.1" id="Capa_1" xmlns="http://www.w3.org/2000/svg" xmlns:xlink="http://www.w3.org/1999/xlink" x="0px" y="0px"
	 viewBox="0 0 436.907 436.907" style="enable-background:new 0 0 436.907 436.907;" xml:space="preserve">
<circle style="fill:#E05B49;" cx="218.453" cy="218.453" r="218.453"/>
<path style="opacity:0.1;enable-background:new    ;" d="M435.785,240.711l-89.988-89.988c-0.887-1.502-2.458-2.56-4.335-2.56
	h-13.892V134.1c0-2.219-1.775-3.994-3.994-3.994h-1.707c-2.219,0-3.994,1.775-3.994,3.994v14.063h-12.459V134.1
	c0-2.219-1.775-3.994-3.994-3.994h-1.707c-2.219,0-3.994,1.775-3.994,3.994v10.82l-13.585-13.585
	c-0.717-0.751-1.741-1.229-2.867-1.229h-1.707c-2.219,0-3.994,1.775-3.994,3.994v10.82l-13.585-13.585
	c-0.717-0.751-1.741-1.229-2.867-1.229h-1.741c-2.185,0-3.959,1.775-3.959,3.994v5.018l-17.306-17.306l-0.034,0.034
	c-0.205-0.307-0.41-0.614-0.717-0.888l-13.141-11.093c-1.604-1.365-4.028-1.16-5.427,0.444l-6.485,7.68l-5.086,6.042l-7.783,9.216
	l-1.98-1.98l-0.034-0.034c-0.717-0.683-1.707-1.126-2.765-1.126h-1.741c-2.185,0-3.96,1.775-3.96,3.994v10.82l-13.619-13.619
	c0-0.034-0.034-0.034-0.034-0.034l-0.034-0.034c-0.717-0.683-1.707-1.126-2.765-1.126h-1.741c-2.185,0-3.96,1.775-3.96,3.994v10.82
	l-13.688-13.688c-0.717-0.683-1.707-1.126-2.765-1.126h-1.741c-2.184,0-3.959,1.775-3.959,3.994v14.063h-13.892
	c-2.765,0-5.018,2.253-5.018,5.018v67.243l-18.227,21.572l-10.001,26.59l-0.034-0.034l-3.038,8.192l31.3,31.3v5.905
	c0,3.652,1.434,6.963,3.755,9.489h-0.034l0.273,0.273c0.102,0.103,0.171,0.171,0.273,0.273L238.018,435.99
	C342.149,426.74,425.284,344.477,435.785,240.711z"/>
<path style="fill:#E1E6E9;" d="M346.453,313.952V153.178c0-2.761-2.238-4.998-4.998-4.998H126.753c-2.761,0-4.998,2.238-4.998,4.998
	v160.774c0,7.736,6.272,14.008,14.008,14.008h196.683C340.182,327.96,346.453,321.689,346.453,313.952z"/>
<g>
	<path style="fill:#64798A;" d="M150.336,156.592v-22.497c0-2.199-1.783-3.982-3.982-3.982h-1.728c-2.199,0-3.982,1.783-3.982,3.982
		v22.497c0,2.199,1.783,3.982,3.982,3.982h1.728C148.553,160.574,150.336,158.792,150.336,156.592z"/>
	<path style="fill:#64798A;" d="M172.49,156.592v-22.497c0-2.199-1.783-3.982-3.982-3.982h-1.728c-2.199,0-3.982,1.783-3.982,3.982
		v22.497c0,2.199,1.783,3.982,3.982,3.982h1.728C170.707,160.574,172.49,158.792,172.49,156.592z"/>
	<path style="fill:#64798A;" d="M194.643,156.592v-22.497c0-2.199-1.783-3.982-3.982-3.982h-1.728c-2.199,0-3.982,1.783-3.982,3.982
		v22.497c0,2.199,1.783,3.982,3.982,3.982h1.728C192.86,160.574,194.643,158.792,194.643,156.592z"/>
	<path style="fill:#64798A;" d="M216.797,156.592v-22.497c0-2.199-1.783-3.982-3.982-3.982h-1.728c-2.199,0-3.982,1.783-3.982,3.982
		v22.497c0,2.199,1.783,3.982,3.982,3.982h1.728C215.014,160.574,216.797,158.792,216.797,156.592z"/>
	<path style="fill:#64798A;" d="M238.95,156.592v-22.497c0-2.199-1.783-3.982-3.982-3.982h-1.728c-2.199,0-3.982,1.783-3.982,3.982
		v22.497c0,2.199,1.783,3.982,3.982,3.982h1.728C237.167,160.574,238.95,158.792,238.95,156.592z"/>
	<path style="fill:#64798A;" d="M261.104,156.592v-22.497c0-2.199-1.783-3.982-3.982-3.982h-1.728c-2.199,0-3.982,1.783-3.982,3.982
		v22.497c0,2.199,1.783,3.982,3.982,3.982h1.728C259.321,160.574,261.104,158.792,261.104,156.592z"/>
	<path style="fill:#64798A;" d="M283.257,156.592v-22.497c0-2.199-1.783-3.982-3.982-3.982h-1.728c-2.199,0-3.982,1.783-3.982,3.982
		v22.497c0,2.199,1.783,3.982,3.982,3.982h1.728C281.474,160.574,283.257,158.792,283.257,156.592z"/>
	<path style="fill:#64798A;" d="M305.411,156.592v-22.497c0-2.199-1.783-3.982-3.982-3.982h-1.728c-2.199,0-3.982,1.783-3.982,3.982
		v22.497c0,2.199,1.783,3.982,3.982,3.982h1.728C303.628,160.574,305.411,158.792,305.411,156.592z"/>
	<path style="fill:#64798A;" d="M327.564,156.592v-22.497c0-2.199-1.783-3.982-3.982-3.982h-1.728c-2.199,0-3.982,1.783-3.982,3.982
		v22.497c0,2.199,1.783,3.982,3.982,3.982h1.728C325.781,160.574,327.564,158.792,327.564,156.592z"/>
</g>
<g>
	<rect x="141.005" y="181.043" style="fill:#D5D6DB;" width="188.416" height="13.418"/>
	<rect x="141.005" y="205.756" style="fill:#D5D6DB;" width="188.416" height="13.418"/>
	<rect x="141.005" y="230.434" style="fill:#D5D6DB;" width="188.416" height="13.418"/>
	<rect x="141.005" y="255.147" style="fill:#D5D6DB;" width="188.416" height="13.418"/>
	<rect x="141.005" y="279.825" style="fill:#D5D6DB;" width="188.416" height="13.418"/>
</g>
<rect x="150.449" y="113.81" transform="matrix(-0.7638 -0.6455 0.6455 -0.7638 164.0198 442.0957)" style="fill:#F6C358;" width="24.907" height="154.453"/>
<rect x="151.869" y="109.908" transform="matrix(-0.7638 -0.6455 0.6455 -0.7638 158.3509 432.2185)" style="fill:#FCD462;" width="12.783" height="154.453"/>
<rect x="202.822" y="125.104" transform="matrix(-0.7638 -0.6455 0.6455 -0.7638 296.4084 366.5612)" style="fill:#E1E6E9;" width="24.907" height="7.881"/>
<rect x="213.965" y="129.189" transform="matrix(-0.7638 -0.6455 0.6455 -0.7638 302.2661 376.8749)" style="fill:#D5D6DB;" width="12.254" height="7.881"/>
<path style="fill:#E56353;" d="M233.376,120.97l-13.154-11.116c-1.621-1.37-4.045-1.166-5.414,0.454l-6.499,7.69l19.023,16.076
	l6.499-7.69C235.2,124.764,234.996,122.34,233.376,120.97z"/>
<path style="fill:#D15241;" d="M233.376,120.97l-6.678-5.644l-8.979,10.625l9.613,8.124l6.499-7.69
	C235.2,124.764,234.996,122.34,233.376,120.97z"/>
<polyline style="fill:#D5D6DB;" points="122.539,258.078 90.453,276.753 103.516,242.002 "/>
<polygon style="fill:#E1E6E9;" points="103.516,242.002 90.453,276.753 113.281,250.254 "/>
<polygon style="fill:#3A556A;" points="90.453,276.753 93.478,268.556 97.989,272.368 "/>
<g>
</g>
<g>
</g>
<g>
</g>
<g>
</g>
<g>
</g>
<g>
</g>
<g>
</g>
<g>
</g>
<g>
</g>
<g>
</g>
<g>
</g>
<g>
</g>
<g>
</g>
<g>
</g>
<g>
</g>
</svg>
