<svg id="Capa_1" enable-background="new 0 0 512 512" height="512" viewBox="0 0 512 512" width="512" xmlns="http://www.w3.org/2000/svg"><g><g><path d="m333.027 389.168c-2.847 0-5.585-1.577-6.932-4.298-1.892-3.82-.324-8.448 3.501-10.336 38.704-19.116 68.317-51.858 83.383-92.197 1.491-3.993 5.943-6.021 9.939-4.533 3.998 1.49 6.03 5.934 4.539 9.926-16.446 44.033-48.768 79.774-91.011 100.636-1.101.543-2.269.802-3.419.802zm-155.922 0c-1.15 0-2.318-.258-3.419-.802-42.243-20.863-74.565-56.602-91.012-100.636-1.491-3.993.541-8.436 4.539-9.926 3.998-1.488 8.449.54 9.939 4.533 15.066 40.339 44.68 73.082 83.384 92.197 3.825 1.889 5.392 6.517 3.501 10.336-1.348 2.72-4.086 4.298-6.932 4.298zm175.357-304.446c-1.47 0-2.956-.418-4.271-1.292-27.603-18.33-59.8-28.019-93.111-28.019-32.742 0-64.467 9.371-91.743 27.099-3.576 2.321-8.363 1.313-10.69-2.259s-1.315-8.351 2.262-10.676c29.791-19.363 64.43-29.597 100.172-29.597 36.365 0 71.521 10.582 101.667 30.601 3.553 2.359 4.519 7.149 2.155 10.698-1.489 2.235-3.941 3.445-6.441 3.445z" fill="#cdbeb9"/></g><g><path clip-rule="evenodd" d="m96.279 32.5c-34.488.554-68.946 26.481-68.946 77.635l74.728 14.465 63.164-14.465c0-51.154-34.458-77.081-68.946-77.635z" fill="#6d80aa" fill-rule="evenodd"/></g><g><path clip-rule="evenodd" d="m0 261.293v18.169c0 1.837.905 3.471 2.278 4.491.905.671 2.044 1.079 3.271 1.079h181.461c1.226 0 2.365-.408 3.271-1.079 1.402-1.021 2.278-2.654 2.278-4.491v-18.169c0-32.022-21.785-40.976-44.095-47.246h-104.369c-22.31 6.271-44.095 15.224-44.095 47.246z" fill="#22a6fe" fill-rule="evenodd"/></g><g><path clip-rule="evenodd" d="m44.095 214.047 42.839 25.081c7.271 4.695 11.418 4.695 18.689 0l42.839-25.081c-3.971-1.108-7.972-2.158-11.856-3.208-9.053-2.479-11.447-14.145-13.316-17.907h-54.023c-1.869 3.762-4.264 15.428-13.316 17.907-3.884 1.05-7.884 2.1-11.856 3.208z" fill="#fed1a3" fill-rule="evenodd"/></g><g><path clip-rule="evenodd" d="m27.333 131.192c0 21.815 18.134 48.529 41.934 61.741 3.154 1.75 6.424 3.266 9.753 4.491 12.469 4.637 22.048 4.637 34.517 0 3.329-1.225 6.6-2.741 9.753-4.491 23.829-13.211 41.934-39.926 41.934-61.741v-21.057c-27.888-1.954-23.741-23.244-43.015-18.286-14.893 3.821-20.383 5.745-25.931 5.745-5.519 0-11.038-1.925-25.931-5.745-19.273-4.958-15.097 16.332-43.015 18.286v21.057z" fill="#ffe5c1" fill-rule="evenodd"/></g><g><path clip-rule="evenodd" d="m104.952 218.364c2.628-.758 5.607-1.954 7.914-2.683 1.898-.642 3.095-1.108 5.724.962l10.746 8.603 19.127-11.199c-3.971-1.108-7.972-2.158-11.856-3.208-9.053-2.479-11.447-14.145-13.316-17.907-3.154 1.75-6.395 3.266-9.753 4.491-12.469 4.637-22.048 4.637-34.517 0-3.329-1.225-6.6-2.741-9.753-4.491-1.373 2.8-3.037 9.916-7.505 14.407 13.257 9.1 30.224 14.816 43.189 11.025z" fill="#ffbc85" fill-rule="evenodd"/></g><g><path clip-rule="evenodd" d="m90.264 32.85c23.128 7.845 42.693 28.114 46.84 60.807.058.525.117 1.05.175 1.604 5.782 5.22 10.863 13.678 27.946 14.874 0-51.154-34.458-77.081-68.946-77.635-2.015.029-4 .146-6.015.35z" fill="#49679b" fill-rule="evenodd"/></g><g><path clip-rule="evenodd" d="m137.892 127.867c0 29.281-30.662 62.849-60.711 68.857.613.233 1.226.467 1.84.7 12.469 4.637 22.048 4.637 34.517 0 3.358-1.225 6.6-2.741 9.753-4.491 23.829-13.211 41.934-39.926 41.934-61.741v-21.057c-17.083-1.196-22.164-9.653-27.946-14.874 1.139 10.266.613 22.282.613 32.606z" fill="#fed1a3" fill-rule="evenodd"/></g><g><path clip-rule="evenodd" d="m129.336 225.246c22.31 6.27 44.095 15.253 44.095 47.246v11.462 1.079h13.579c1.226 0 2.365-.408 3.271-1.079 1.402-1.021 2.278-2.654 2.278-4.491v-18.169c0-32.022-21.785-40.976-44.095-47.246z" fill="#0182fc" fill-rule="evenodd"/></g><g><path clip-rule="evenodd" d="m415.692 32.5c-34.458.554-68.946 26.481-68.946 77.635l74.728 14.465 63.193-14.465c0-51.154-34.488-77.081-68.975-77.635z" fill="#6d80aa" fill-rule="evenodd"/></g><g><path clip-rule="evenodd" d="m319.412 261.293v18.169c0 1.837.905 3.471 2.278 4.491.934.671 2.044 1.079 3.271 1.079h181.462c1.226 0 2.365-.408 3.271-1.079 1.402-1.021 2.307-2.654 2.307-4.491v-18.169c0-32.022-21.814-40.976-44.124-47.246h-104.37c-22.31 6.271-44.095 15.224-44.095 47.246z" fill="#80d261" fill-rule="evenodd"/></g><g><path clip-rule="evenodd" d="m363.507 214.047 42.839 25.081c7.271 4.695 11.447 4.695 18.719 0l42.81-25.081c-3.971-1.108-7.972-2.158-11.856-3.208-9.053-2.479-11.447-14.145-13.316-17.907h-54.023c-1.84 3.762-4.234 15.428-13.316 17.907-3.884 1.05-7.885 2.1-11.857 3.208z" fill="#fed1a3" fill-rule="evenodd"/></g><g><path clip-rule="evenodd" d="m346.745 131.192c0 21.815 18.135 48.529 41.934 61.741 3.154 1.75 6.424 3.266 9.753 4.491 12.499 4.637 22.048 4.637 34.546 0 3.329-1.225 6.57-2.741 9.724-4.491 23.829-13.211 41.963-39.926 41.963-61.741v-21.057c-27.917-1.954-23.771-23.244-43.015-18.286-14.893 3.821-20.412 5.745-25.961 5.745-5.519 0-11.038-1.925-25.931-5.745-19.273-4.958-15.097 16.332-43.015 18.286v21.057z" fill="#ffe5c1" fill-rule="evenodd"/></g><g><path clip-rule="evenodd" d="m424.365 218.364c2.657-.758 5.607-1.954 7.914-2.683 1.927-.642 3.095-1.108 5.753.962l10.717 8.603 19.127-11.199c-3.971-1.108-7.972-2.158-11.856-3.208-9.053-2.479-11.447-14.145-13.316-17.907-3.154 1.75-6.395 3.266-9.724 4.491-12.499 4.637-22.048 4.637-34.546 0-3.329-1.225-6.6-2.741-9.753-4.491-1.372 2.8-3.037 9.916-7.476 14.407 13.257 9.1 30.194 14.816 43.16 11.025z" fill="#ffbc85" fill-rule="evenodd"/></g><g><path clip-rule="evenodd" d="m409.705 32.85c23.099 7.845 42.664 28.114 46.811 60.807.058.525.117 1.05.175 1.604 5.811 5.22 10.863 13.678 27.976 14.874 0-51.154-34.488-77.081-68.975-77.635-1.986.029-4.001.146-5.987.35z" fill="#49679b" fill-rule="evenodd"/></g><g><path clip-rule="evenodd" d="m457.305 127.867c0 29.281-30.662 62.849-60.711 68.857.613.233 1.227.467 1.84.7 12.499 4.637 22.048 4.637 34.546 0 3.329-1.225 6.57-2.741 9.753-4.491 23.8-13.211 41.934-39.926 41.934-61.741v-21.057c-17.112-1.196-22.164-9.653-27.976-14.874 1.139 10.266.614 22.282.614 32.606z" fill="#fed1a3" fill-rule="evenodd"/></g><g><path clip-rule="evenodd" d="m448.748 225.246c22.31 6.27 44.095 15.253 44.095 47.246v11.462 1.079h13.579c1.226 0 2.365-.408 3.271-1.079 1.402-1.021 2.307-2.654 2.307-4.491v-18.169c0-32.022-21.814-40.976-44.124-47.246z" fill="#4fc122" fill-rule="evenodd"/></g><g><path clip-rule="evenodd" d="m255.08 479.5c44.066 0 80.014-35.901 80.014-79.939 0-44.009-35.948-79.91-80.014-79.91-44.095 0-80.043 35.901-80.043 79.91 0 44.038 35.948 79.939 80.043 79.939z" fill="#fdb440" fill-rule="evenodd"/></g><g><path clip-rule="evenodd" d="m332.466 379.233c-8.994-34.297-40.24-59.583-77.385-59.583-5.578 0-11.009.583-16.236 1.633 34.108 7.029 60.302 35.726 63.485 71.073.204 2.362.321 4.783.321 7.204 0 38.613-27.392 70.811-63.807 78.277 5.227 1.079 10.659 1.662 16.236 1.662 44.183 0 80.014-35.784 80.014-79.939 0-7.028-.905-13.823-2.628-20.327z" fill="#fe9900" fill-rule="evenodd"/></g><path d="m263.111 391.845h-15.973c-3.823 0-6.933-3.094-6.933-6.895 0-3.738 3.175-6.895 6.933-6.895h30.516c4.267 0 7.726-3.454 7.726-7.716s-3.459-7.716-7.726-7.716h-14.847v-9.637c0-4.262-3.459-7.716-7.726-7.716s-7.726 3.454-7.726 7.716v9.637h-.216c-12.344 0-22.386 10.016-22.386 22.328s10.042 22.328 22.386 22.328h15.973c3.695 0 6.816 3.171 6.816 6.923 0 3.737-3.161 6.895-6.904 6.895h-30.545c-4.267 0-7.726 3.454-7.726 7.716s3.459 7.716 7.726 7.716h14.847v9.637c0 4.262 3.459 7.716 7.726 7.716s7.726-3.454 7.726-7.716v-9.637h.246c12.327 0 22.357-10.016 22.357-22.328-.001-12.327-9.991-22.356-22.27-22.356z" fill="#f8f2f0"/></g></svg>