<svg id="Layer_3" enable-background="new 0 0 64 64" height="512" viewBox="0 0 64 64" width="512" xmlns="http://www.w3.org/2000/svg"><g><path d="m42 12v47h-6v-47l3-10z" fill="#817d74"/><path d="m37 59h4v3h-4z" fill="#cbc3b6"/><path d="m24 12h8v38h-8z" fill="#f8cf6a"/><path d="m24 50h8v12h-8z" fill="#bf8859"/><path d="m24 12 4-10 4 10z" fill="#e2b88f"/><path d="m7 2h12v60h-12z" fill="#9d958c"/><path d="m45 46v6h-3v2h3v4h2v-12z" fill="#cbc3b6"/><g><path d="m27 12h2v38h-2z" fill="#817d74"/></g><g><path d="m7 5h6v2h-6z" fill="#cbc3b6"/></g><g><path d="m7 9h4v2h-4z" fill="#cbc3b6"/></g><g><path d="m7 13h4v2h-4z" fill="#cbc3b6"/></g><g><path d="m7 17h4v2h-4z" fill="#cbc3b6"/></g><g><path d="m7 21h6v2h-6z" fill="#cbc3b6"/></g><g><path d="m7 25h4v2h-4z" fill="#cbc3b6"/></g><g><path d="m7 29h4v2h-4z" fill="#cbc3b6"/></g><g><path d="m7 33h4v2h-4z" fill="#cbc3b6"/></g><g><path d="m7 37h6v2h-6z" fill="#cbc3b6"/></g><g><path d="m7 41h4v2h-4z" fill="#cbc3b6"/></g><g><path d="m7 45h4v2h-4z" fill="#cbc3b6"/></g><g><path d="m7 49h4v2h-4z" fill="#cbc3b6"/></g><g><path d="m7 53h6v2h-6z" fill="#cbc3b6"/></g><g><path d="m7 57h4v2h-4z" fill="#cbc3b6"/></g><g><path d="m54 23c-2.206 0-4-1.794-4-4v-8.5c0-1.378 1.122-2.5 2.5-2.5s2.5 1.122 2.5 2.5v9.5h-2v-9.5c0-.276-.224-.5-.5-.5s-.5.224-.5.5v8.5c0 1.103.897 2 2 2s2-.897 2-2v-8.5c0-1.93-1.57-3.5-3.5-3.5s-3.5 1.57-3.5 3.5v10.5h-2v-10.5c0-3.033 2.467-5.5 5.5-5.5s5.5 2.467 5.5 5.5v8.5c0 2.206-1.794 4-4 4z" fill="#817d74"/></g><g><path d="m54 43c-2.206 0-4-1.794-4-4v-8.5c0-1.378 1.122-2.5 2.5-2.5s2.5 1.122 2.5 2.5v9.5h-2v-9.5c0-.276-.224-.5-.5-.5s-.5.224-.5.5v8.5c0 1.103.897 2 2 2s2-.897 2-2v-8.5c0-1.93-1.57-3.5-3.5-3.5s-3.5 1.57-3.5 3.5v10.5h-2v-10.5c0-3.033 2.467-5.5 5.5-5.5s5.5 2.467 5.5 5.5v8.5c0 2.206-1.794 4-4 4z" fill="#817d74"/></g></g></svg>